<svg xmlns="http://www.w3.org/2000/svg" viewBox="0 0 180 180"><defs><filter id="s" x="-35%" y="-35%" width="170%" height="190%"><feDropShadow dx="0" dy="8" stdDeviation="6" flood-color="#66515d" flood-opacity=".24"/></filter><linearGradient id="shine" x1="0" x2="1"><stop stop-color="#fff" stop-opacity=".75"/><stop offset="1" stop-color="#fff" stop-opacity="0"/></linearGradient></defs><g filter="url(#s)"><ellipse cx="69" cy="48" rx="17" ry="42" fill="#fffdf8" stroke="#fff" stroke-width="5" transform="rotate(-10 69 48)"/><ellipse cx="111" cy="48" rx="17" ry="42" fill="#fffdf8" stroke="#fff" stroke-width="5" transform="rotate(10 111 48)"/><ellipse cx="71" cy="48" rx="7" ry="27" fill="#ffb7cc" transform="rotate(-10 71 48)"/><ellipse cx="109" cy="48" rx="7" ry="27" fill="#ffb7cc" transform="rotate(10 109 48)"/><ellipse cx="91" cy="130" rx="50" ry="42" fill="#fffdf8" stroke="#fff" stroke-width="6"/><circle cx="91" cy="86" r="45" fill="#fffdf8" stroke="#fff" stroke-width="6"/><ellipse cx="55" cy="143" rx="18" ry="13" fill="#fffdf8" stroke="#fff" stroke-width="4"/><ellipse cx="127" cy="143" rx="18" ry="13" fill="#fffdf8" stroke="#fff" stroke-width="4"/><g fill="#4a4147"><ellipse cx="76" cy="91" rx="6" ry="8"/><ellipse cx="108" cy="91" rx="6" ry="8"/></g><g fill="#fff"><circle cx="78" cy="88" r="2.2"/><circle cx="110" cy="88" r="2.2"/></g><ellipse cx="92" cy="103" rx="5" ry="4" fill="#ef9aaa"/><path d="M86 106q5 5 10 0" fill="none" stroke="#674d55" stroke-width="3" stroke-linecap="round"/><circle cx="57" cy="105" r="9" fill="#ffb4c6" opacity=".58"/><circle cx="126" cy="105" r="9" fill="#ffb4c6" opacity=".58"/><g transform="translate(124 67) rotate(12)"><ellipse cx="-10" cy="0" rx="13" ry="9" fill="#ff8fb8"/><ellipse cx="10" cy="0" rx="13" ry="9" fill="#ff8fb8"/><circle r="6" fill="#fff3f7"/></g><g fill="#fff6a9" opacity=".9"><path d="M31 88l3 6 7 1-5 5 1 7-6-4-6 4 1-7-5-5 7-1z"/><circle cx="145" cy="96" r="4"/></g><path d="M60 69q15-14 36-12" fill="none" stroke="url(#shine)" stroke-width="8" stroke-linecap="round"/></g></svg>