<svg xmlns="http://www.w3.org/2000/svg" viewBox="0 0 180 180"><defs><filter id="s" x="-35%" y="-35%" width="170%" height="190%"><feDropShadow dx="0" dy="8" stdDeviation="6" flood-color="#66515d" flood-opacity=".24"/></filter><linearGradient id="shine" x1="0" x2="1"><stop stop-color="#fff" stop-opacity=".75"/><stop offset="1" stop-color="#fff" stop-opacity="0"/></linearGradient></defs><g filter="url(#s)"><path d="M139 130q25 5 18 23-7 15-27 2" fill="none" stroke="#f4d1a5" stroke-width="16" stroke-linecap="round"/><path d="M55 61q-29-3-25 30 4 22 27 13z" fill="#b27a55" stroke="#fff" stroke-width="5"/><path d="M125 61q29-3 25 30-4 22-27 13z" fill="#b27a55" stroke="#fff" stroke-width="5"/><ellipse cx="91" cy="130" rx="50" ry="42" fill="#f4d1a5" stroke="#fff" stroke-width="6"/><circle cx="91" cy="86" r="45" fill="#f4d1a5" stroke="#fff" stroke-width="6"/><ellipse cx="55" cy="143" rx="18" ry="13" fill="#f4d1a5" stroke="#fff" stroke-width="4"/><ellipse cx="127" cy="143" rx="18" ry="13" fill="#f4d1a5" stroke="#fff" stroke-width="4"/><g fill="#4a4147"><ellipse cx="76" cy="91" rx="6" ry="8"/><ellipse cx="108" cy="91" rx="6" ry="8"/></g><g fill="#fff"><circle cx="78" cy="88" r="2.2"/><circle cx="110" cy="88" r="2.2"/></g><ellipse cx="92" cy="103" rx="5" ry="4" fill="#ef9aaa"/><path d="M86 106q5 5 10 0" fill="none" stroke="#674d55" stroke-width="3" stroke-linecap="round"/><circle cx="57" cy="105" r="9" fill="#ffb4c6" opacity=".58"/><circle cx="126" cy="105" r="9" fill="#ffb4c6" opacity=".58"/><path d="M61 126q31 18 62 0l-5 17q-27 11-54 0z" fill="#9bcf8c" stroke="#fff" stroke-width="4"/><path d="M111 138l14 22 9-6-11-22z" fill="#9bcf8c" stroke="#fff" stroke-width="4"/><g fill="#fff6a9" opacity=".9"><path d="M31 88l3 6 7 1-5 5 1 7-6-4-6 4 1-7-5-5 7-1z"/><circle cx="145" cy="96" r="4"/></g><path d="M60 69q15-14 36-12" fill="none" stroke="url(#shine)" stroke-width="8" stroke-linecap="round"/></g></svg>